<?xml version="1.0" encoding="UTF-8"?>
<svg id="_レイヤー_2" data-name="レイヤー 2" xmlns="http://www.w3.org/2000/svg" xmlns:xlink="http://www.w3.org/1999/xlink" viewBox="0 0 317.95 183.46">
  <defs>
    <style>
      .cls-1 {
        fill: url(#_名称未設定グラデーション_204);
      }

      .cls-2 {
        fill: url(#_名称未設定グラデーション_709);
      }

      .cls-3 {
        fill: #e8c5ff;
      }

      .cls-4 {
        fill: #ad83ff;
      }

      .cls-5 {
        fill: #885af9;
      }

      .cls-6 {
        fill: url(#_名称未設定グラデーション_709-4);
      }

      .cls-7 {
        fill: url(#_名称未設定グラデーション_709-3);
      }

      .cls-8 {
        fill: url(#_名称未設定グラデーション_709-6);
      }

      .cls-9 {
        fill: url(#_名称未設定グラデーション_709-2);
      }

      .cls-10 {
        fill: url(#_名称未設定グラデーション_709-5);
      }

      .cls-11 {
        fill: url(#_名称未設定グラデーション_709-8);
      }

      .cls-12 {
        fill: url(#_名称未設定グラデーション_709-7);
      }
    </style>
    <linearGradient id="_名称未設定グラデーション_709" data-name="名称未設定グラデーション 709" x1="16" y1="138.85" x2="16" y2="183.46" gradientUnits="userSpaceOnUse">
      <stop offset="0" stop-color="#885af9"/>
      <stop offset=".5" stop-color="#ad83ff"/>
      <stop offset=".8" stop-color="#9367fa"/>
      <stop offset="1" stop-color="#885af9"/>
    </linearGradient>
    <linearGradient id="_名称未設定グラデーション_709-2" data-name="名称未設定グラデーション 709" x1="55.65" x2="55.65" xlink:href="#_名称未設定グラデーション_709"/>
    <linearGradient id="_名称未設定グラデーション_709-3" data-name="名称未設定グラデーション 709" x1="93.45" x2="93.45" xlink:href="#_名称未設定グラデーション_709"/>
    <linearGradient id="_名称未設定グラデーション_709-4" data-name="名称未設定グラデーション 709" x1="134.73" x2="134.73" xlink:href="#_名称未設定グラデーション_709"/>
    <linearGradient id="_名称未設定グラデーション_709-5" data-name="名称未設定グラデーション 709" x1="194.55" x2="194.55" xlink:href="#_名称未設定グラデーション_709"/>
    <linearGradient id="_名称未設定グラデーション_709-6" data-name="名称未設定グラデーション 709" x1="238.16" x2="238.16" xlink:href="#_名称未設定グラデーション_709"/>
    <linearGradient id="_名称未設定グラデーション_709-7" data-name="名称未設定グラデーション 709" x1="269.03" x2="269.03" xlink:href="#_名称未設定グラデーション_709"/>
    <linearGradient id="_名称未設定グラデーション_709-8" data-name="名称未設定グラデーション 709" x1="299.79" x2="299.79" xlink:href="#_名称未設定グラデーション_709"/>
    <linearGradient id="_名称未設定グラデーション_204" data-name="名称未設定グラデーション 204" x1="158.98" y1="0" x2="158.98" y2="122.96" gradientUnits="userSpaceOnUse">
      <stop offset="0" stop-color="#e8a9ff"/>
      <stop offset="1" stop-color="#8440f9"/>
    </linearGradient>
  </defs>
  <g id="_1" data-name="1">
    <g>
      <g>
        <path class="cls-2" d="M0,138.85H32v4.33H5.38v15.67H29.95v4.33H5.38v15.93h26.62v4.33H0v-44.6Z"/>
        <path class="cls-9" d="M38.37,177.6v-4.08h5.31v2.49l3.4,3.12h16.99l3.54-3.25v-10l-3.54-3.12h-19.04l-6.51-5.86v-12.17l6.51-5.86h20.82l6.51,5.86v4.14h-5.24v-2.55l-3.54-3.12h-16.21l-3.54,3.12v8.98l3.54,3.12h19.04l6.51,5.86v13.19l-6.65,5.99h-21.38l-6.51-5.86Z"/>
        <path class="cls-7" d="M90.76,143.12h-15.01v-4.27h35.4v4.27h-15.01v40.33h-5.38v-40.33Z"/>
        <path class="cls-6" d="M152.29,169.82v13.64h-5.38v-12.3l-6.8-6.44h-17.56v18.73h-5.38v-44.6h28.32l6.51,5.86v14.08l-5.73,5.16,6.02,5.86Zm-29.74-9.3h20.6l3.54-3.12v-11.21l-3.54-3.12h-20.6v17.46Z"/>
        <path class="cls-10" d="M176.29,176.45v-30.59l7.79-7.01h21.24l7.5,6.75v4.08h-5.38v-2.49l-4.53-4.01h-16.43l-4.81,4.27v27.4l4.81,4.27h16.43l4.53-4.01v-2.49h5.38v4.08l-7.5,6.75h-21.24l-7.79-7.01Z"/>
        <path class="cls-8" d="M219.19,176.45v-30.59l7.79-7.01h22.37l7.79,7.01v30.59l-7.79,7.01h-22.37l-7.79-7.01Zm27.75,2.68l4.81-4.27v-27.4l-4.81-4.27h-17.56l-4.81,4.27v27.4l4.81,4.27h17.56Z"/>
        <path class="cls-12" d="M266.34,138.85h5.38v44.6h-5.38v-44.6Z"/>
        <path class="cls-11" d="M281.63,138.85h5.24l25.84,36.7h.14v-36.7h5.1v44.6h-5.24l-25.84-36.7h-.14v36.7h-5.1v-44.6Z"/>
      </g>
      <g>
        <g>
          <polygon class="cls-5" points="143.84 85.49 143.84 63.6 130.16 55.71 130.16 93.39 162.8 112.23 162.8 96.43 143.84 85.49"/>
          <polygon class="cls-3" points="164.39 34.1 131.75 52.95 145.44 60.84 164.39 49.9 183.34 60.84 197.02 52.95 164.39 34.1"/>
          <polygon class="cls-4" points="184.94 63.6 184.94 85.49 165.98 96.43 165.98 112.23 198.62 93.39 198.62 55.71 184.94 63.6"/>
        </g>
        <polygon class="cls-1" points="201.81 71.69 201.81 77.81 218.8 77.81 218.8 40.21 158.98 5.67 116.1 30.43 116.1 6.12 130.43 6.12 130.43 17.81 136.55 14.36 136.55 0 109.98 0 109.98 33.96 99.15 40.21 99.15 122.96 218.73 122.96 218.73 116.85 105.27 116.85 105.27 43.74 109.98 41.03 109.98 77.81 126.97 77.81 126.97 71.69 116.1 71.69 116.1 37.49 158.98 12.74 212.68 43.74 212.68 71.69 201.81 71.69"/>
      </g>
    </g>
  </g>
</svg>